<?xml version="1.0" encoding="UTF-8" standalone="no"?>
<!-- Created with Inkscape (http://www.inkscape.org/) -->
<svg xmlns:dc="http://purl.org/dc/elements/1.1/" xmlns:cc="http://creativecommons.org/ns#" xmlns:rdf="http://www.w3.org/1999/02/22-rdf-syntax-ns#" xmlns:svg="http://www.w3.org/2000/svg" xmlns="http://www.w3.org/2000/svg" xmlns:xlink="http://www.w3.org/1999/xlink" xmlns:sodipodi="http://sodipodi.sourceforge.net/DTD/sodipodi-0.dtd" xmlns:inkscape="http://www.inkscape.org/namespaces/inkscape" id="svg2442" sodipodi:version="0.32" inkscape:version="0.46" width="253.68454" height="373.38925" version="1.0" sodipodi:docname="baby_tux_01.svg" inkscape:output_extension="org.inkscape.output.svg.inkscape">
  <metadata id="metadata2447">
    <rdf:RDF>
      <cc:Work rdf:about="">
        <dc:format>image/svg+xml</dc:format>
        <dc:type rdf:resource="http://purl.org/dc/dcmitype/StillImage"/>
      </cc:Work>
    </rdf:RDF>
  </metadata>
  <defs id="defs2445">
    <linearGradient id="linearGradient3287">
      <stop id="stop3289" offset="0" style="stop-color:#000000;stop-opacity:1;"/>
      <stop style="stop-color:#000000;stop-opacity:1;" offset="0.73456752" id="stop3295"/>
      <stop style="stop-color:#7f7f7f;stop-opacity:1;" offset="0.88736063" id="stop3291"/>
      <stop id="stop3293" offset="1" style="stop-color:#ffffff;stop-opacity:1;"/>
    </linearGradient>
    <linearGradient id="linearGradient3265">
      <stop style="stop-color:#000000;stop-opacity:1;" offset="0" id="stop3267"/>
      <stop id="stop3285" offset="0.5" style="stop-color:#7f7f7f;stop-opacity:1;"/>
      <stop style="stop-color:#ffffff;stop-opacity:1;" offset="1" id="stop3269"/>
    </linearGradient>
    <linearGradient id="linearGradient3225">
      <stop style="stop-color:#ff6f00;stop-opacity:1;" offset="0" id="stop3227"/>
      <stop style="stop-color:#ffff00;stop-opacity:1;" offset="1" id="stop3229"/>
    </linearGradient>
    <inkscape:perspective sodipodi:type="inkscape:persp3d" inkscape:vp_x="0 : 526.18109 : 1" inkscape:vp_y="0 : 1000 : 0" inkscape:vp_z="744.09448 : 526.18109 : 1" inkscape:persp3d-origin="372.04724 : 350.78739 : 1" id="perspective2449"/>
    <radialGradient inkscape:collect="always" xlink:href="#linearGradient3287" id="radialGradient3281" gradientUnits="userSpaceOnUse" gradientTransform="matrix(1.2974, 0.0111729, -0.0110846, 1.28713, -407.215, -161.788)" cx="425.57852" cy="249.18903" fx="425.57852" fy="249.18903" r="126.84227"/>
    <radialGradient inkscape:collect="always" xlink:href="#linearGradient3225" id="radialGradient3283" gradientUnits="userSpaceOnUse" gradientTransform="matrix(1, 0, 0, 0.694167, 0, 52.4126)" spreadMethod="pad" cx="141.64372" cy="171.37651" fx="141.64372" fy="171.37651" r="43.208504"/>
    <radialGradient inkscape:collect="always" xlink:href="#linearGradient3287" id="radialGradient3330" cx="145.56604" cy="317.39966" fx="145.56604" fy="317.39966" r="123.24189" gradientTransform="matrix(1.46964, 0.0195663, -0.0156899, 1.13064, -100.851, -53.7109)" gradientUnits="userSpaceOnUse"/>
    <radialGradient inkscape:collect="always" xlink:href="#linearGradient3225" id="radialGradient3358" cx="100.07117" cy="333.68243" fx="100.07117" fy="333.68243" r="50.789104" gradientTransform="matrix(1.99713, -0.00647074, 0.00605882, 1.86999, -131.804, -291.541)" gradientUnits="userSpaceOnUse"/>
    <radialGradient inkscape:collect="always" xlink:href="#linearGradient3225" id="radialGradient3362" gradientUnits="userSpaceOnUse" gradientTransform="matrix(1.99713, -0.00647074, 0.00605882, 1.86999, -23.7826, -290.231)" cx="100.07117" cy="333.68243" fx="100.07117" fy="333.68243" r="50.789104"/>
  </defs>
  <sodipodi:namedview inkscape:window-height="719" inkscape:window-width="897" inkscape:pageshadow="2" inkscape:pageopacity="0.0" guidetolerance="10.0" gridtolerance="10.0" objecttolerance="10.0" borderopacity="1.0" bordercolor="#666666" pagecolor="#ffffff" id="base" showgrid="false" showguides="true" inkscape:guide-bbox="true" inkscape:zoom="0.81255882" inkscape:cx="105.46099" inkscape:cy="215.97377" inkscape:window-x="50" inkscape:window-y="40" inkscape:current-layer="svg2442"/>
  <g id="g3372" inkscape:export-filename="/home/nathan/Desktop/BabyTux.png" inkscape:export-xdpi="90" inkscape:export-ydpi="90">
    <path sodipodi:nodetypes="csszs" id="path3317" d="M 239.76927,291.32094 C 241.44074,344.54444 180.20548,364.20993 119.06904,364.20993 C 57.932499,364.20993 2.9635295,338.15926 3.6457895,288.91414 C 4.4602595,230.12633 47.608069,177.76054 119.06904,177.05349 C 190.53002,176.34654 237.67383,224.59691 239.76927,291.32094 z" style="fill:url(#radialGradient3330);fill-opacity:1;stroke:#000000;stroke-width:4.78394032;stroke-linecap:round;stroke-linejoin:round;stroke-miterlimit:4;stroke-opacity:1"/>
    <g transform="translate(-30.9728, -7.01314)" id="g3273">
      <path style="fill:url(#radialGradient3281);fill-opacity:1;stroke:#000000;stroke-width:4.8327632;stroke-linecap:round;stroke-linejoin:round;stroke-miterlimit:4;stroke-opacity:1" d="M 280.86924,144.53442 C 293.49459,201.308 216.39508,220.16479 155.27125,220.16479 C 94.147404,220.16479 27.510994,197.40525 33.802814,149.48989 C 45.808684,58.059131 83.825084,10.160077 155.27125,9.4384563 C 226.71742,8.7168343 260.22146,51.685691 280.86924,144.53442 z" id="path3250" sodipodi:nodetypes="csszs"/>
      <g id="g3244">
        <path sodipodi:nodetypes="czzzzzscc" id="path3237" d="M 108.59375,45.90625 C 81.923434,45.90625 59.80455,94.935769 57.803517,113.64284 C 55.795048,132.41943 54.415184,141.02759 58.213183,153.26721 C 62.090776,165.76333 102.92415,192.65523 151.59818,192.65739 C 199.4463,192.65951 239.06597,172.39858 247.37158,156.57085 C 255.67719,140.74311 254.07001,138.60081 251.91523,115.29466 C 249.76045,91.988513 227.05086,45.906249 199.46875,45.90625 C 178.64309,45.90625 160.75179,63.416042 153.25,88.28125 C 145.99483,63.420295 128.7288,45.906249 108.59375,45.90625 z" style="fill:#ffffff;fill-opacity:1;stroke:none;stroke-width:3;stroke-linecap:round;stroke-linejoin:round;stroke-miterlimit:4;stroke-dasharray:none;stroke-opacity:1"/>
        <path transform="matrix(0.98935, 0, 0, 0.984411, 13.2258, 7.16314)" d="M 183.35223,171.37651 A 41.708504,28.493927 0 1 1 99.935219,171.37651 A 41.708504,28.493927 0 1 1 183.35223,171.37651 z" sodipodi:ry="28.493927" sodipodi:rx="41.708504" sodipodi:cy="171.37651" sodipodi:cx="141.64372" id="path2453" style="fill:url(#radialGradient3283);fill-opacity:1;stroke:#000000;stroke-width:3.03989053;stroke-linecap:round;stroke-linejoin:round;stroke-miterlimit:4;stroke-dasharray:none;stroke-opacity:1" sodipodi:type="arc"/>
        <path transform="matrix(1, 0, 0, 1.01554, 0, -1.33726)" d="M 133.4921,115.50874 A 10.386113,29.478231 0 1 1 112.71987,115.50874 A 10.386113,29.478231 0 1 1 133.4921,115.50874 z" sodipodi:ry="29.478231" sodipodi:rx="10.386113" sodipodi:cy="115.50874" sodipodi:cx="123.10599" id="path3233" style="fill:#000000;fill-opacity:1;stroke:none;stroke-width:3;stroke-linecap:round;stroke-linejoin:round;stroke-miterlimit:4;stroke-dasharray:none;stroke-opacity:1" sodipodi:type="arc"/>
        <path sodipodi:type="arc" style="fill:#000000;fill-opacity:1;stroke:none;stroke-width:3;stroke-linecap:round;stroke-linejoin:round;stroke-miterlimit:4;stroke-dasharray:none;stroke-opacity:1" id="path3235" sodipodi:cx="123.10599" sodipodi:cy="115.50874" sodipodi:rx="10.386113" sodipodi:ry="29.478231" d="M 133.4921,115.50874 A 10.386113,29.478231 0 1 1 112.71987,115.50874 A 10.386113,29.478231 0 1 1 133.4921,115.50874 z" transform="matrix(1, 0, 0, 1.01554, 60.4838, -1.03179)"/>
      </g>
    </g>
    <path transform="matrix(0.877, 0, 0, 0.956481, -15.0873, 13.2433)" d="M 265.96178,286.75272 A 110.16554,71.705383 0 1 1 45.630692,286.75272 A 110.16554,71.705383 0 1 1 265.96178,286.75272 z" sodipodi:ry="71.705383" sodipodi:rx="110.16554" sodipodi:cy="286.75272" sodipodi:cx="155.79623" id="path3315" style="fill:#ffffff;fill-opacity:1;stroke:none;stroke-width:3.29999995;stroke-linecap:round;stroke-linejoin:round;stroke-miterlimit:4;stroke-dasharray:none;stroke-opacity:1" sodipodi:type="arc"/>
    <path id="path3350" d="M 70.236379,294.33416 C 70.236379,294.33416 68.921809,265.08512 46.574229,264.42784 C 24.226639,263.77055 20.282949,287.10406 20.282949,293.34824 C 20.282949,299.59242 23.569359,370.25022 70.893659,370.57886 C 118.21795,370.9075 119.86116,292.36232 119.86116,292.36232 C 119.86116,292.36232 117.23203,262.78463 94.227167,263.44191 C 71.222299,264.0992 70.236379,294.33416 70.236379,294.33416 z" style="fill:url(#radialGradient3358);fill-opacity:1;fill-rule:evenodd;stroke:#000000;stroke-width:3;stroke-linecap:butt;stroke-linejoin:miter;stroke-miterlimit:4;stroke-dasharray:none;stroke-opacity:1"/>
    <path style="fill:url(#radialGradient3362);fill-opacity:1;fill-rule:evenodd;stroke:#000000;stroke-width:3;stroke-linecap:butt;stroke-linejoin:miter;stroke-miterlimit:4;stroke-dasharray:none;stroke-opacity:1" d="M 178.25806,295.64351 C 178.25806,295.64351 176.94349,266.39447 154.59591,265.73719 C 132.24832,265.0799 128.30463,288.41341 128.30463,294.65759 C 128.30463,300.90177 131.59104,371.55957 178.91534,371.88821 C 226.23963,372.21685 227.88284,293.67167 227.88284,293.67167 C 227.88284,293.67167 225.25371,264.09398 202.24885,264.75126 C 179.24398,265.40855 178.25806,295.64351 178.25806,295.64351 z" id="path3360"/>
    <path transform="matrix(0.7766, -0.629994, 0.629994, 0.7766, -398.11, 252.481)" d="M 332.86721,293.92365 A 11.095573,5.8945236 0 1 1 310.67606,293.92365 A 11.095573,5.8945236 0 1 1 332.86721,293.92365 z" sodipodi:ry="5.8945236" sodipodi:rx="11.095573" sodipodi:cy="293.92365" sodipodi:cx="321.77164" id="path3364" style="fill:#ffffff;fill-opacity:1;stroke:none;stroke-width:3;stroke-linecap:round;stroke-linejoin:round;stroke-miterlimit:4;stroke-dasharray:none;stroke-opacity:1" sodipodi:type="arc"/>
    <path inkscape:transform-center-y="-20.110727" inkscape:transform-center-x="118.58394" sodipodi:type="arc" style="fill:#ffffff;fill-opacity:1;stroke:none;stroke-width:3;stroke-linecap:round;stroke-linejoin:round;stroke-miterlimit:4;stroke-dasharray:none;stroke-opacity:1" id="path3366" sodipodi:cx="321.77164" sodipodi:cy="293.92365" sodipodi:rx="11.095573" sodipodi:ry="5.8945236" d="M 332.86721,293.92365 A 11.095573,5.8945236 0 1 1 310.67606,293.92365 A 11.095573,5.8945236 0 1 1 332.86721,293.92365 z" transform="matrix(0.7766, -0.629994, 0.629994, 0.7766, -398.11, 252.481)"/>
    <path transform="matrix(0.7766, -0.629994, 0.629994, 0.7766, -289.928, 253.174)" d="M 332.86721,293.92365 A 11.095573,5.8945236 0 1 1 310.67606,293.92365 A 11.095573,5.8945236 0 1 1 332.86721,293.92365 z" sodipodi:ry="5.8945236" sodipodi:rx="11.095573" sodipodi:cy="293.92365" sodipodi:cx="321.77164" id="path3368" style="fill:#ffffff;fill-opacity:1;stroke:none;stroke-width:3;stroke-linecap:round;stroke-linejoin:round;stroke-miterlimit:4;stroke-dasharray:none;stroke-opacity:1" sodipodi:type="arc" inkscape:transform-center-x="118.58394" inkscape:transform-center-y="-20.110727"/>
    <path inkscape:transform-center-y="-47.650893" inkscape:transform-center-x="302.60249" sodipodi:type="arc" style="fill:#ffffff;fill-opacity:0.35371178;stroke:none;stroke-width:3;stroke-linecap:round;stroke-linejoin:round;stroke-miterlimit:4;stroke-dasharray:none;stroke-opacity:1" id="path3370" sodipodi:cx="321.77164" sodipodi:cy="293.92365" sodipodi:rx="11.095573" sodipodi:ry="5.8945236" d="M 332.86721,293.92365 A 11.095573,5.8945236 0 1 1 310.67606,293.92365 A 11.095573,5.8945236 0 1 1 332.86721,293.92365 z" transform="matrix(1.98173, -1.49272, 1.60762, 1.8401, -1036.48, -21.4053)"/>
  </g>
</svg>